/* XPM */
static char * g_phantom_r_00_xpm[] = {
"64 64 365 2",
"  	c #000000",
". 	c #013E00",
"+ 	c #015600",
"@ 	c #026900",
"# 	c #027600",
"$ 	c #038100",
"% 	c #013D00",
"& 	c #000300",
"* 	c #001A00",
"= 	c #038C00",
"- 	c #06B200",
"; 	c #08C900",
"> 	c #09D800",
", 	c #0AE300",
"' 	c #0AE200",
") 	c #0BE800",
"! 	c #0BED00",
"~ 	c #0CF000",
"{ 	c #0BEA00",
"] 	c #0ADF00",
"^ 	c #08C700",
"/ 	c #06AF00",
"( 	c #038500",
"_ 	c #026300",
": 	c #0C0000",
"< 	c #090000",
"[ 	c #020000",
"} 	c #010C00",
"| 	c #023700",
"1 	c #044F00",
"2 	c #066200",
"3 	c #0AB200",
"4 	c #0CD200",
"5 	c #0DFF00",
"6 	c #0DFC00",
"7 	c #0DF600",
"8 	c #0DE000",
"9 	c #0DA900",
"0 	c #0B7300",
"a 	c #065800",
"b 	c #031900",
"c 	c #010F00",
"d 	c #000200",
"e 	c #042A00",
"f 	c #094D00",
"g 	c #0D8B00",
"h 	c #0DB600",
"i 	c #0DCB00",
"j 	c #0DE500",
"k 	c #0DF000",
"l 	c #0DDF00",
"m 	c #0DC200",
"n 	c #0DA700",
"o 	c #0C3D00",
"p 	c #093500",
"q 	c #072E00",
"r 	c #064F00",
"s 	c #0A8800",
"t 	c #0CC500",
"u 	c #0DEE00",
"v 	c #0DF800",
"w 	c #0DFE00",
"x 	c #0DFA00",
"y 	c #0DE300",
"z 	c #0DBC00",
"A 	c #0DA500",
"B 	c #0C6F00",
"C 	c #023C00",
"D 	c #08AA00",
"E 	c #0A9D00",
"F 	c #0DEF00",
"G 	c #0DCF00",
"H 	c #0D9600",
"I 	c #010D00",
"J 	c #076800",
"K 	c #0CDD00",
"L 	c #0DFD00",
"M 	c #0DDD00",
"N 	c #06A800",
"O 	c #025900",
"P 	c #010600",
"Q 	c #000400",
"R 	c #066900",
"S 	c #0AD700",
"T 	c #0BE900",
"U 	c #059F00",
"V 	c #036300",
"W 	c #000100",
"X 	c #023200",
"Y 	c #0BE600",
"Z 	c #06B100",
"` 	c #023600",
" .	c #010400",
"..	c #0BE000",
"+.	c #09D500",
"@.	c #025700",
"#.	c #025F00",
"$.	c #09D300",
"%.	c #0DEA00",
"&.	c #0D7F00",
"*.	c #015100",
"=.	c #07B800",
"-.	c #0DD300",
";.	c #003000",
">.	c #07BD00",
",.	c #0BEB00",
"'.	c #05A700",
").	c #037E00",
"!.	c #0BF000",
"~.	c #08C300",
"{.	c #048A00",
"].	c #034300",
"^.	c #09B700",
"/.	c #2EFF2A",
"(.	c #4EFF4C",
"_.	c #9FFF9F",
":.	c #CBFFCA",
"<.	c #EBFFEB",
"[.	c #F9FFF9",
"}.	c #FFFFFF",
"|.	c #40FF3D",
"1.	c #27FF23",
"2.	c #A3FFA2",
"3.	c #E2FFE2",
"4.	c #F0FFF0",
"5.	c #DAFFDA",
"6.	c #C5FFC5",
"7.	c #83FF82",
"8.	c #16FF0D",
"9.	c #053800",
"0.	c #088E00",
"a.	c #66FE63",
"b.	c #B2FEB1",
"c.	c #F2FAF0",
"d.	c #ECF7E9",
"e.	c #D5EFCD",
"f.	c #75FC71",
"g.	c #AAFBA7",
"h.	c #C1FFC1",
"i.	c #67FF66",
"j.	c #0DD700",
"k.	c #076A00",
"l.	c #000500",
"m.	c #011C00",
"n.	c #0AB700",
"o.	c #42FF40",
"p.	c #CBFDCA",
"q.	c #FEFFFE",
"r.	c #EAF7E7",
"s.	c #A7F7A2",
"t.	c #BEFDBD",
"u.	c #DDFFDD",
"v.	c #A0F498",
"w.	c #77F970",
"x.	c #0A8E00",
"y.	c #021800",
"z.	c #045E00",
"A.	c #0CDB00",
"B.	c #81FF80",
"C.	c #F6FEF6",
"D.	c #D8F0D1",
"E.	c #E7F5E3",
"F.	c #BEF8BA",
"G.	c #20FF17",
"H.	c #0CC600",
"I.	c #000600",
"J.	c #068A00",
"K.	c #0DF900",
"L.	c #E5FFE5",
"M.	c #5BFF5A",
"N.	c #0DE200",
"O.	c #097800",
"P.	c #08A900",
"Q.	c #F2FFF2",
"R.	c #0DE800",
"S.	c #0B8800",
"T.	c #055800",
"U.	c #0BCC00",
"V.	c #F6FFF6",
"W.	c #99FF98",
"X.	c #0C9F00",
"Y.	c #069400",
"Z.	c #A3FFA3",
"`.	c #0DFB00",
" +	c #0DDE00",
".+	c #08AF00",
"++	c #0055D4",
"@+	c #08D18C",
"#+	c #0DFE10",
"$+	c #0DE100",
"%+	c #001100",
"&+	c #0ACB00",
"*+	c #07C897",
"=+	c #0DFD21",
"-+	c #001B00",
";+	c #0CDF00",
">+	c #06C19D",
",+	c #002400",
"'+	c #0CF300",
")+	c #06B6A7",
"!+	c #0DFC27",
"~+	c #0DE600",
"{+	c #012900",
"]+	c #04A8B1",
"^+	c #0CF44B",
"/+	c #002F00",
"(+	c #0396BC",
"_+	c #0AE077",
":+	c #000900",
"<+	c #027DC8",
"[+	c #0399BA",
"}+	c #2A5ED5",
"|+	c #637DDA",
"1+	c #8596DF",
"2+	c #9FAAE4",
"3+	c #9BA7E3",
"4+	c #8999E0",
"5+	c #476BD7",
"6+	c #768ADD",
"7+	c #65FF63",
"8+	c #EFF9ED",
"9+	c #EAF6E6",
"0+	c #F6FBF5",
"a+	c #F7FCF6",
"b+	c #F3FAF1",
"c+	c #3EFF3C",
"d+	c #D0F5CB",
"e+	c #F7FEF7",
"f+	c #5EFF5D",
"g+	c #F2FBF1",
"h+	c #8BF985",
"i+	c #AEF9A9",
"j+	c #DAF5D6",
"k+	c #F1FFF0",
"l+	c #E1FFE1",
"m+	c #CEF9CA",
"n+	c #58FF57",
"o+	c #36FF33",
"p+	c #A6FCA3",
"q+	c #D9FFD9",
"r+	c #F4FFF4",
"s+	c #DBFFDB",
"t+	c #D0FFD0",
"u+	c #B0F5AA",
"v+	c #49FC3F",
"w+	c #76F869",
"x+	c #E7FFE7",
"y+	c #FAFFFA",
"z+	c #AAFFA9",
"A+	c #50FF4E",
"B+	c #14FF0A",
"C+	c #2DFF29",
"D+	c #51FF50",
"E+	c #A8FFA7",
"F+	c #DEFFDE",
"G+	c #C6FFC5",
"H+	c #8BFF8A",
"I+	c #2CFF28",
"J+	c #1BFF14",
"K+	c #24FF20",
"L+	c #47FF44",
"M+	c #3AFF37",
"N+	c #30FF2C",
"O+	c #26FF21",
"P+	c #0EFF01",
"Q+	c #11FF05",
"R+	c #25FF21",
"S+	c #33FF30",
"T+	c #09D900",
"U+	c #0DED00",
"V+	c #0DF200",
"W+	c #0DF100",
"X+	c #0DEC00",
"Y+	c #0CDA00",
"Z+	c #037C00",
"`+	c #0CD100",
" @	c #0DF300",
".@	c #0DEB00",
"+@	c #049C00",
"@@	c #049200",
"#@	c #08CB00",
"$@	c #0DF500",
"%@	c #0CB500",
"&@	c #0C7600",
"*@	c #0C8900",
"=@	c #05AA00",
"-@	c #049500",
";@	c #0DDB00",
">@	c #0C9200",
",@	c #0C6900",
"'@	c #0CBD00",
")@	c #0DE400",
"!@	c #015A00",
"~@	c #0DE900",
"{@	c #0CD000",
"]@	c #0CB800",
"^@	c #0CE000",
"/@	c #0CCD00",
"(@	c #0CD900",
"_@	c #0CD800",
":@	c #0BB800",
"<@	c #049600",
"[@	c #013900",
"}@	c #0CCC00",
"|@	c #0AA600",
"1@	c #09B900",
"2@	c #0DF700",
"3@	c #06B400",
"4@	c #026500",
"5@	c #08CD00",
"6@	c #013F00",
"7@	c #014700",
"8@	c #07C000",
"9@	c #0CF800",
"0@	c #027700",
"a@	c #0CF200",
"b@	c #015200",
"c@	c #001F00",
"d@	c #049700",
"e@	c #0AE100",
"f@	c #026800",
"g@	c #09CF00",
"h@	c #014600",
"i@	c #0CBC00",
"j@	c #014B00",
"k@	c #0BC100",
"l@	c #038900",
"m@	c #015500",
"n@	c #09D700",
"o@	c #07C600",
"p@	c #06B800",
"q@	c #089D00",
"r@	c #089800",
"s@	c #0CB400",
"t@	c #001700",
"u@	c #05AC00",
"v@	c #0CD600",
"w@	c #06BA00",
"x@	c #001D00",
"y@	c #07C400",
"z@	c #099300",
"A@	c #002200",
"B@	c #054300",
"C@	c #095900",
"D@	c #037D00",
"E@	c #0CBA00",
"F@	c #0CBF00",
"G@	c #0CB100",
"H@	c #05A200",
"I@	c #0DF400",
"J@	c #015000",
"K@	c #0A7B00",
"L@	c #055B00",
"M@	c #054200",
"N@	c #074E00",
"O@	c #064E00",
"P@	c #0C6800",
"Q@	c #0A9400",
"R@	c #024400",
"S@	c #085600",
"T@	c #011300",
"U@	c #011200",
"V@	c #033700",
"W@	c #012300",
"X@	c #0C6700",
"                                                                                                                                ",
"                                                                                                                                ",
"                                                          . + @ # $ $ $ $ # @ + %                                               ",
"                                          & * = - ; > , , ' ) ! ~ ~ ~ ~ ~ ~ { ] ^ / ( _ : < [                                   ",
"                                    } | 1 2 3 4 5 5 5 5 5 5 5 5 5 5 5 5 5 5 5 5 5 6 7 8 9 0 a b c d                             ",
"                                  e f g h i j k 5 5 5 5 5 5 5 5 5 5 5 5 5 5 5 5 5 5 5 5 l m n o p q                             ",
"                                r s t u v w 5 5 5 5 5 5 5 5 5 5 5 5 5 5 5 5 5 5 5 5 5 5 5 x y z A B <                           ",
"                            C D E u w 5 5 5 5 5 5 5 5 5 5 5 5 5 5 5 5 5 5 5 5 5 5 5 5 5 5 5 5 5 F G H                           ",
"                          I J K x 5 5 5 5 5 5 5 5 5 5 5 5 5 5 5 5 5 5 5 5 5 5 5 5 5 5 5 5 5 5 5 5 L M N O P                     ",
"                        Q R S w 5 5 5 5 5 5 5 5 5 5 5 5 5 5 5 5 5 5 5 5 5 5 5 5 5 5 5 5 5 5 5 5 5 5 w T U V                     ",
"                      W X F 5 5 5 5 5 5 5 5 5 5 5 5 5 5 5 5 5 5 5 5 5 5 5 5 5 5 5 5 5 5 5 5 5 5 5 5 5 5 Y Z `                   ",
"                       ...w 5 5 5 5 5 5 5 5 5 5 5 5 5 5 5 5 5 5 5 5 5 5 5 5 5 5 5 5 5 5 5 5 5 6 5 5 5 5 5 +.@.                  ",
"                    #.$.5 5 5 5 5 5 5 5 5 5 5 5 5 5 5 5 5 5 5 5 5 5 5 5 5 5 5 5 5 5 5 5 5 5 5 5 5 5 5 5 5 %.&.                  ",
"                  *.=.~ 5 5 5 5 5 5 5 5 5 5 5 5 5 5 5 5 5 5 5 5 5 5 5 5 5 5 5 5 5 5 5 5 5 5 5 5 5 5 5 5 5 L -.(                 ",
"                ;.>.,.5 5 5 5 5 5 5 5 5 5 5 5 5 5 5 5 5 5 5 5 5 5 5 5 5 5 5 5 5 5 5 5 5 5 5 5 5 5 5 5 5 5 5 x '.                ",
"                ).!.5 5 5 5 5 5 5 5 5 5 5 5 5 5 5 5 5 5 5 5 5 5 5 5 5 5 5 5 5 5 5 5 5 5 5 5 5 5 5 5 5 5 5 5 5 ~.{.Q             ",
"              ].^.5 5 5 5 5 5 5 5 5 5 /.(._.:.<.[.}.}.}.}.|.|.5 5 5 5 5 5 5 5 5 5 5 1.2.3.[.4.5.6.7.8.5 5 5 5 5 h 9.            ",
"            P 0.v 5 5 5 5 5 5 5 5 5 a.b.}.}.}.}.}.}.}.}.}.c.d.e.5 5 5 5 5 5 5 5 5 f.g.[.}.}.}.}.}.h.i.5 5 5 5 5 j.k.l.          ",
"            m.n.5 5 5 5 5 5 5 5 5 o.p.[.}.}.}.}.}.}.}.}.}.}.q.r.5 5 5 5 5 5 5 5 s.t.}.}.}.}.}.}.}.4.u.v.w.5 5 5 x x.y.          ",
"            z.A.5 5 5 5 5 5 5 5 5 B.C.}.}.}.}.}.}.}.}.}.}.}.}.r.5 5 5 5 5 5 5 5 D.}.}.}.}.}.}.}.}.}.}.E.F.G.5 5 L H.2           ",
"          I.J.K.5 5 5 5 5 5 5 5 5 }.}.}.}.}.}.}.}.}.}.}.}.}.}.}.}.5 5 5 5 5 5 }.}.}.}.}.}.}.}.}.}.}.}.}.L.M.5 5 5 N.O.          ",
"          m.P.w 5 5 5 5 5 5 5 5 5 }.}.}.}.}.}.}.}.}.}.}.}.}.}.}.}.5 5 5 5 5 5 }.}.}.}.}.}.}.}.}.}.}.}.}.Q.i.5 5 5 R.S.          ",
"          T.U.5 5 5 5 5 5 5 5 5 5 }.}.}.}.}.}.}.}.}.}.}.}.}.}.}.}.5 5 5 5 5 5 }.}.}.}.}.}.}.}.}.}.}.}.}.V.W.5 5 5 u X.          ",
"          Y.7 5 5 5 5 5 5 5 5 5 5 }.}.}.}.}.}.}.}.}.}.}.}.}.}.}.}.5 5 5 5 5 5 }.}.}.}.}.}.}.}.}.}.}.}.}.}.Z.5 5 5 `. +          ",
"          .+`.5 5 5 5 5 5 5 5 5 5 }.}.}.}.}.}.}.}.++++++++++++++++5 5 5 5 5 5 }.}.}.}.}.}.}.}.++++++++++++@+#+5 5 5 $+          ",
"        %+&+w 5 5 5 5 5 5 5 5 5 5 }.}.}.}.}.}.}.}.++++++++++++++++5 5 5 5 5 5 }.}.}.}.}.}.}.}.++++++++++++*+=+5 5 5 j           ",
"        -+;+5 5 5 5 5 5 5 5 5 5 5 }.}.}.}.}.}.}.}.++++++++++++++++5 5 5 5 5 5 }.}.}.}.}.}.}.}.++++++++++++>+=+5 5 5 R.          ",
"        ,+'+5 5 5 5 5 5 5 5 5 5 5 }.}.}.}.}.}.}.}.++++++++++++++++5 5 5 5 5 5 }.}.}.}.}.}.}.}.++++++++++++)+!+5 5 w ~+          ",
"        {+5 5 5 5 5 5 5 5 5 5 5 5 }.}.}.}.}.}.}.}.++++++++++++++++5 5 5 5 5 5 }.}.}.}.}.}.}.}.++++++++++++]+^+5 5 5 5           ",
"        /+5 5 5 5 5 5 5 5 5 5 5 5 }.}.}.}.}.}.}.}.++++++++++++++++5 5 5 5 5 5 }.}.}.}.}.}.}.}.++++++++++++(+_+5 5 5 5           ",
"        :+5 5 5 5 5 5 5 5 5 5 5 5 }.}.}.}.}.}.}.}.++++++++++++++++5 5 5 5 5 5 }.}.}.}.}.}.}.}.++++++++++++<+[+5 5 5 5           ",
"          5 5 5 5 5 5 5 5 5 5 5 5 }.}.}.}.}.}.}.}.}+|+1+2+2+3+4+|+5 5 5 5 5 5 }.}.}.}.}.}.}.}.++5+1+1+1+1+6+++5 5 5 5           ",
"          5 5 5 5 5 5 5 5 5 5 5 5 7+8+}.}.}.}.}.}.}.}.}.}.}.}.9+7+5 5 5 5 5 5 7+0+}.}.}.}.}.}.}.}.}.}.a+b+D.5 5 5 5 5           ",
"          5 5 5 5 5 5 5 5 5 5 5 5 c+d+e+}.}.}.}.}.}.}.}.}.}.}.9+7+5 5 5 5 5 5 f+g+}.}.}.}.}.}.}.}.}.}.}.}.D.5 5 5 5 5           ",
"          5 5 5 5 5 5 5 5 5 5 5 5 5 h+i+j+}.}.}.}.}.}.}.}.k+l+m+n+5 5 5 5 5 5 o+p+q+r+}.}.}.}.}.}.[.u.s+t+u+5 5 5 5 5           ",
"          5 5 5 5 5 5 5 5 5 5 5 5 5 5 v+w+x+}.}.}.}.}.y+r+z+A+5 5 5 5 5 5 5 5 5 B+C+D+E+F+4.}.}.[.G+H+o+I+J+5 5 5 5 5           ",
"          5 5 5 5 5 5 5 5 5 5 5 5 5 5 5 5 5 5 5 5 K+L+M+N+O+5 5 5 5 5 5 5 5 5 5 5 5 5 P+Q+J+5 5 R+S+5 5 5 5 5 5 5 5 5           ",
"          5 5 5 5 5 5 5 5 5 5 5 5 5 5 5 5 5 5 5 5 5 5 5 5 5 5 5 5 5 5 5 5 5 5 5 5 5 5 5 5 5 5 5 5 5 5 5 5 5 5 5 5 5 5           ",
"          5 5 5 5 5 5 5 5 5 5 5 5 5 5 5 5 5 5 5 5 5 5 5 5 5 5 5 5 5 5 5 5 5 5 5 5 5 5 5 5 5 5 5 5 5 5 5 5 5 5 5 5 5 5           ",
"          5 5 5 5 5 5 5 5 5 5 5 5 5 5 5 5 5 5 5 5 5 5 5 5 5 5 5 5 5 5 5 5 5 5 5 5 5 5 5 5 5 5 5 5 5 5 5 5 5 5 5 5 5 5           ",
"          5 5 5 5 5 5 5 5 5 5 5 5 5 5 5 5 5 5 5 5 5 5 5 5 5 5 5 5 5 5 5 5 5 5 5 5 5 5 5 5 5 5 5 5 5 5 5 5 5 5 5 5 5 5           ",
"          5 5 5 5 5 5 5 5 5 5 5 5 5 5 5 5 5 5 5 5 5 5 5 5 5 5 5 5 5 5 5 5 5 5 5 5 5 5 5 5 5 5 5 5 5 5 5 5 5 5 5 5 5 5           ",
"          5 5 5 5 5 5 5 5 5 5 5 5 5 5 5 5 5 5 5 5 5 5 5 5 5 5 5 5 5 5 5 5 5 5 5 5 5 5 5 5 5 5 5 5 5 5 5 5 5 5 5 5 5 5           ",
"          5 5 5 5 5 5 5 5 5 5 5 5 5 5 5 5 5 5 5 5 5 5 5 5 5 5 5 5 5 5 5 5 5 5 5 5 5 5 5 5 5 5 5 5 5 5 5 5 5 5 5 5 5 5           ",
"          5 5 5 5 5 5 5 5 5 5 5 5 5 5 5 5 5 5 5 5 5 5 5 5 5 5 5 5 5 5 5 5 5 5 5 5 5 5 5 5 5 5 5 5 5 5 5 5 5 5 5 5 5 5           ",
"          5 5 5 5 5 5 5 5 5 5 5 5 5 5 5 5 5 5 5 5 5 5 5 5 5 5 5 5 5 5 5 5 5 5 5 5 5 5 5 5 5 5 5 5 5 5 5 5 5 5 5 5 5 5           ",
"          5 5 5 5 5 5 5 5 5 5 5 5 5 5 5 5 5 5 5 5 5 5 5 5 5 5 5 5 5 5 5 5 5 5 5 5 5 5 5 5 5 5 5 5 5 5 5 5 5 5 5 5 5 5           ",
"          5 5 5 5 5 5 5 5 5 5 5 5 5 5 5 5 5 5 5 5 5 5 5 5 5 5 5 5 5 5 5 5 5 5 5 5 5 5 5 5 5 5 5 5 5 5 5 5 5 5 5 5 5 5           ",
"          5 5 5 5 5 5 5 5 5 5 5 5 5 5 5 5 5 5 5 5 5 5 5 5 5 5 5 5 5 5 5 5 5 5 5 5 5 5 5 5 5 5 5 5 5 5 5 5 5 5 5 5 5 5           ",
"          5 5 5 5 5 5 5 5 5 5 5 5 5 5 5 5 5 5 5 5 5 5 5 5 5 5 5 5 5 5 5 5 5 5 5 5 5 5 5 5 5 5 5 5 5 5 5 5 5 5 5 5 5 5           ",
"          5 5 5 5 5 5 5 5 5 5 5 5 5 5 5 5 5 5 5 5 5 5 5 5 5 5 5 5 5 L 5 5 5 5 5 5 5 5 5 5 5 5 5 5 5 5 5 5 5 5 5 5 5 5           ",
"          5 5 5 5 5 5 5 5 5 5 5 5 5 5 5 5 5 5 5 5 5 5 5 5 5 5 6 T+; U+w 5 5 5 5 5 5 5 5 5 5 5 5 5 L L 5 5 5 5 5 5 5 5           ",
"          5 5 5 5 5 5 5 5 w V+W+5 5 5 5 5 5 5 5 5 5 5 5 5 5 X+Y+Z+  `+ @5 5 5 5 5 5 5 5 5 5 5 6 .@y ~+5 5 5 5 5 5 5 5           ",
"          5 5 5 5 5 5 5 5 - +@@@#@5 5 5 5 5 5 5 5 5 5 5 5 $@%@&@    *@%@l 5 5 5 5 5 5 5 5 5 5 =@Z+  -@5 5 5 5 5 5 5 5           ",
"          5 5 5 5 5 5 K _       ( / %.5 5 5 5 5 5 5 5 5 5 ;@>@,@    ,@&@'@5 5 5 5 5 5 5 )@Y++@%       ( %.5 5 5 5 5 5           ",
"        !@5 5 5 5 5 ~@{@          % {@)@5 5 5 5 5 5 5 5 5 ]@,@,@    ,@,@X.5 5 5 5 5 5 ^@/@]@            (@w 5 5 5 5 5           ",
"        ( 5 5 5 5 x _@:@            ]@_@6 5 5 5 5 5 5 5 5 <@            [@5 5 5 5 5 5 }@]@|@            1@2@5 5 5 5 5           ",
"        '.5 5 5 5 3@4@                Z+5@5 5 5 5 5 5 '+5@6@              5 5 5 5 5 5                   7@8@5 5 5 5 5           ",
"        >.w 5 5 9@0@                    '.a@5 5 5 u H.b@c@                d@k 5 5 e@f@                    @@~ 5 5 5 (@          ",
"        5@5 5 5 g@h@                    _ +.5 5 5 U+i@                    j@k@/@/@l@m@                    *.n@5 5 5 (@          ",
"        o@5 5 ,.).Q                       p@K.5 5 ~+q@                      r@s@]@                        t@u@e@5 5 v@          ",
"        w@L 5 p@x@                        Z+y@j.j.z@A@                      B@C@,@                            D@E@F@G@          ",
"        H@I@; !@                          J@_ *@K@L@W                         M@N@                              O@P@,@          ",
"        Z+Q@R@W                               ,@S@T@                          U@V@                              W@M@X@          "};
