/* XPM */
static char * g_phantom_l_00_xpm[] = {
"64 64 400 2",
"  	c #000000",
". 	c #013D00",
"+ 	c #015600",
"@ 	c #026900",
"# 	c #027600",
"$ 	c #038100",
"% 	c #013E00",
"& 	c #020000",
"* 	c #090000",
"= 	c #0C0000",
"- 	c #026300",
"; 	c #038500",
"> 	c #06AF00",
", 	c #08C700",
"' 	c #0ADF00",
") 	c #0BEA00",
"! 	c #0CF000",
"~ 	c #0BED00",
"{ 	c #0BE800",
"] 	c #0AE200",
"^ 	c #0AE300",
"/ 	c #09D800",
"( 	c #08C900",
"_ 	c #06B200",
": 	c #038A00",
"< 	c #001500",
"[ 	c #000200",
"} 	c #010F00",
"| 	c #031900",
"1 	c #065800",
"2 	c #0B7300",
"3 	c #0DA900",
"4 	c #0DE000",
"5 	c #0DF600",
"6 	c #0DFC00",
"7 	c #0DFF00",
"8 	c #0CD200",
"9 	c #0AB100",
"0 	c #066100",
"a 	c #044E00",
"b 	c #023500",
"c 	c #000300",
"d 	c #072E00",
"e 	c #093500",
"f 	c #0C3D00",
"g 	c #0DA700",
"h 	c #0DC200",
"i 	c #0DDF00",
"j 	c #0DF000",
"k 	c #0DE500",
"l 	c #0DCB00",
"m 	c #0DB600",
"n 	c #0D8A00",
"o 	c #043600",
"p 	c #011000",
"q 	c #080000",
"r 	c #0C6F00",
"s 	c #0DA500",
"t 	c #0DBC00",
"u 	c #0DE300",
"v 	c #0DFA00",
"w 	c #0DFE00",
"x 	c #0DF800",
"y 	c #0DEE00",
"z 	c #0CC300",
"A 	c #098300",
"B 	c #033500",
"C 	c #0D9300",
"D 	c #0DCF00",
"E 	c #0DEF00",
"F 	c #0A9B00",
"G 	c #058C00",
"H 	c #001600",
"I 	c #002A00",
"J 	c #06A200",
"K 	c #0DDD00",
"L 	c #0DFD00",
"M 	c #0CDA00",
"N 	c #000600",
"O 	c #001C00",
"P 	c #049700",
"Q 	c #0BE900",
"R 	c #0AD500",
"S 	c #066800",
"T 	c #000400",
"U 	c #049A00",
"V 	c #0BE600",
"W 	c #023200",
"X 	c #000100",
"Y 	c #013A00",
"Z 	c #09D200",
"` 	c #0BE000",
" .	c #010400",
"..	c #0D7D00",
"+.	c #0DEA00",
"@.	c #09D300",
"#.	c #025F00",
"$.	c #038200",
"%.	c #0DD300",
"&.	c #07B800",
"*.	c #015100",
"=.	c #05A700",
"-.	c #0BEB00",
";.	c #07BD00",
">.	c #003000",
",.	c #048A00",
"'.	c #08C300",
").	c #0BF000",
"!.	c #037E00",
"~.	c #053800",
"{.	c #16FF0D",
"].	c #83FF82",
"^.	c #C5FFC5",
"/.	c #DAFFDA",
"(.	c #F0FFF0",
"_.	c #F9FFF9",
":.	c #E2FFE2",
"<.	c #A3FFA2",
"[.	c #27FF23",
"}.	c #40FF3D",
"|.	c #FFFFFF",
"1.	c #EBFFEB",
"2.	c #CBFFCA",
"3.	c #9FFF9F",
"4.	c #4EFF4C",
"5.	c #2EFF2A",
"6.	c #09B700",
"7.	c #034300",
"8.	c #000500",
"9.	c #076A00",
"0.	c #0DD700",
"a.	c #67FF66",
"b.	c #C1FFC1",
"c.	c #AAFBA7",
"d.	c #75FC71",
"e.	c #D5EFCD",
"f.	c #ECF7E9",
"g.	c #F2FAF0",
"h.	c #B2FEB1",
"i.	c #66FE63",
"j.	c #088E00",
"k.	c #010600",
"l.	c #021800",
"m.	c #0A8E00",
"n.	c #77F970",
"o.	c #A0F498",
"p.	c #DDFFDD",
"q.	c #BEFDBD",
"r.	c #A7F7A2",
"s.	c #EAF7E7",
"t.	c #FEFFFE",
"u.	c #CBFDCA",
"v.	c #42FF40",
"w.	c #0AB700",
"x.	c #011C00",
"y.	c #066200",
"z.	c #0CC600",
"A.	c #20FF17",
"B.	c #BEF8BA",
"C.	c #E7F5E3",
"D.	c #D8F0D1",
"E.	c #F6FEF6",
"F.	c #81FF80",
"G.	c #0CDB00",
"H.	c #045E00",
"I.	c #097800",
"J.	c #0DE200",
"K.	c #5BFF5A",
"L.	c #E5FFE5",
"M.	c #0DF900",
"N.	c #068A00",
"O.	c #0B8800",
"P.	c #0DE800",
"Q.	c #F2FFF2",
"R.	c #08A900",
"S.	c #0C9F00",
"T.	c #99FF98",
"U.	c #F6FFF6",
"V.	c #0BCC00",
"W.	c #055800",
"X.	c #0DDE00",
"Y.	c #0DFB00",
"Z.	c #ABFFAB",
"`.	c #069400",
" +	c #0DE100",
".+	c #0DFE10",
"++	c #85DDB0",
"@+	c #A3AEE5",
"#+	c #0055D4",
"$+	c #B8C0EA",
"%+	c #E9EBF8",
"&+	c #C4CBED",
"*+	c #95A3E2",
"=+	c #E5E8F7",
"-+	c #EFF1FA",
";+	c #08AF00",
">+	c #0DFD21",
",+	c #07C897",
"'+	c #C2C8EC",
")+	c #68FF66",
"!+	c #667FDA",
"~+	c #BBC2EB",
"{+	c #0ACB00",
"]+	c #001100",
"^+	c #06C19D",
"/+	c #0CDF00",
"(+	c #001B00",
"_+	c #0DE600",
":+	c #0DFC24",
"<+	c #06B6A7",
"[+	c #0CF300",
"}+	c #002400",
"|+	c #0CF939",
"1+	c #04AEAD",
"2+	c #012900",
"3+	c #0DFB2C",
"4+	c #049EB8",
"5+	c #4168D7",
"6+	c #002F00",
"7+	c #0DFC23",
"8+	c #0388C3",
"9+	c #DADEF3",
"0+	c #B3BCE8",
"a+	c #8193DE",
"b+	c #E7E9F7",
"c+	c #000900",
"d+	c #0DFC29",
"e+	c #C2D5E4",
"f+	c #8596DF",
"g+	c #CFD4F0",
"h+	c #F1F2FA",
"i+	c #D0D4F0",
"j+	c #C6CDED",
"k+	c #A2ADE5",
"l+	c #9FAAE4",
"m+	c #CBD0EF",
"n+	c #EAECF8",
"o+	c #CEF3C8",
"p+	c #F7FBF5",
"q+	c #FAFDF9",
"r+	c #F6FBF5",
"s+	c #65FF63",
"t+	c #EAF6E6",
"u+	c #EFF9ED",
"v+	c #F2FBF1",
"w+	c #5EFF5D",
"x+	c #F7FEF7",
"y+	c #D0F5CB",
"z+	c #3EFF3C",
"A+	c #B0F5AA",
"B+	c #D0FFD0",
"C+	c #DBFFDB",
"D+	c #F4FFF4",
"E+	c #D9FFD9",
"F+	c #A6FCA3",
"G+	c #36FF33",
"H+	c #58FF57",
"I+	c #CEF9CA",
"J+	c #E1FFE1",
"K+	c #F1FFF0",
"L+	c #DAF5D6",
"M+	c #AEF9A9",
"N+	c #8BF985",
"O+	c #1BFF14",
"P+	c #2CFF28",
"Q+	c #8BFF8A",
"R+	c #C6FFC5",
"S+	c #DEFFDE",
"T+	c #A8FFA7",
"U+	c #51FF50",
"V+	c #2DFF29",
"W+	c #14FF0A",
"X+	c #50FF4E",
"Y+	c #AAFFA9",
"Z+	c #FAFFFA",
"`+	c #E7FFE7",
" @	c #76F869",
".@	c #49FC3F",
"+@	c #33FF30",
"@@	c #25FF21",
"#@	c #11FF05",
"$@	c #0EFF01",
"%@	c #26FF21",
"&@	c #30FF2C",
"*@	c #3AFF37",
"=@	c #47FF44",
"-@	c #24FF20",
";@	c #0DED00",
">@	c #09D900",
",@	c #0DEB00",
"'@	c #0DF300",
")@	c #0CD100",
"!@	c #037C00",
"~@	c #0DEC00",
"{@	c #0DF100",
"]@	c #0DF200",
"^@	c #049500",
"/@	c #05A600",
"(@	c #0CF900",
"_@	c #0CB500",
":@	c #0B8000",
"<@	c #0C7600",
"[@	c #0DF500",
"}@	c #08CB00",
"|@	c #049200",
"1@	c #049C00",
"2@	c #002900",
"3@	c #027700",
"4@	c #0DE400",
"5@	c #0CBD00",
"6@	c #033A00",
"7@	c #054200",
"8@	c #0C9200",
"9@	c #0DDB00",
"0@	c #0CDD00",
"a@	c #0CD900",
"b@	c #068100",
"c@	c #0BC000",
"d@	c #0CE000",
"e@	c #064600",
"f@	c #022800",
"g@	c #022C00",
"h@	c #0A6000",
"i@	c #0CB800",
"j@	c #0CD000",
"k@	c #0DE900",
"l@	c #014300",
"m@	c #0DF700",
"n@	c #09B900",
"o@	c #013100",
"p@	c #089600",
"q@	c #08AC00",
"r@	c #013200",
"s@	c #049600",
"t@	c #0CD800",
"u@	c #0BB800",
"v@	c #026B00",
"w@	c #07C000",
"x@	c #014700",
"y@	c #0BEF00",
"z@	c #013F00",
"A@	c #08CD00",
"B@	c #026500",
"C@	c #06B400",
"D@	c #038700",
"E@	c #0AE100",
"F@	c #001F00",
"G@	c #015200",
"H@	c #0CF200",
"I@	c #0CF800",
"J@	c #049900",
"K@	c #09D700",
"L@	c #015500",
"M@	c #038900",
"N@	c #0CCD00",
"O@	c #0BC100",
"P@	c #014B00",
"Q@	c #0CBC00",
"R@	c #09D500",
"S@	c #014600",
"T@	c #09CF00",
"U@	c #07BE00",
"V@	c #0CD600",
"W@	c #05AC00",
"X@	c #001700",
"Y@	c #0CB400",
"Z@	c #089800",
"`@	c #089D00",
" #	c #06B800",
".#	c #06B900",
"+#	c #0CB100",
"@#	c #0CBF00",
"##	c #0CBA00",
"$#	c #037D00",
"%#	c #0C6900",
"&#	c #095900",
"*#	c #054300",
"=#	c #002200",
"-#	c #099300",
";#	c #07C400",
">#	c #001D00",
",#	c #06B600",
"'#	c #0C6800",
")#	c #064E00",
"!#	c #074E00",
"~#	c #055B00",
"{#	c #0A7B00",
"]#	c #0C8900",
"^#	c #015000",
"/#	c #015A00",
"(#	c #0DF400",
"_#	c #05A100",
":#	c #0C6700",
"<#	c #012300",
"[#	c #033700",
"}#	c #011200",
"|#	c #011300",
"1#	c #085600",
"2#	c #024400",
"3#	c #0A9400",
"                                                                                                                                ",
"                                                                                                                                ",
"                                              . + @ # $ $ $ $ # @ + %                                                           ",
"                                  & * = - ; > , ' ) ! ! ! ! ! ! ~ { ] ^ ^ / ( _ : < [                                           ",
"                            [ } | 1 2 3 4 5 6 7 7 7 7 7 7 7 7 7 7 7 7 7 7 7 7 7 8 9 0 a b c                                     ",
"                            d e f g h i 7 7 7 7 7 7 7 7 7 7 7 7 7 7 7 7 7 7 7 7 j k l m n o p                                   ",
"                          q r s t u v 7 7 7 7 7 7 7 7 7 7 7 7 7 7 7 7 7 7 7 7 7 7 7 w x y z A B                                 ",
"                          C D E 7 7 7 7 7 7 7 7 7 7 7 7 7 7 7 7 7 7 7 7 7 7 7 7 7 7 7 7 7 w y F G H                             ",
"                      I J K L 7 7 7 7 7 7 7 7 7 7 7 7 7 7 7 7 7 7 7 7 7 7 7 7 7 7 7 7 7 7 7 7 v M a N                           ",
"                    O P Q w 7 7 7 7 7 7 7 7 7 7 7 7 7 7 7 7 7 7 7 7 7 7 7 7 7 7 7 7 7 7 7 7 7 7 w R S T                         ",
"                  c U V 7 7 7 7 7 7 7 7 7 7 7 7 7 7 7 7 7 7 7 7 7 7 7 7 7 7 7 7 7 7 7 7 7 7 7 7 7 7 E W X                       ",
"                  Y Z 7 7 7 7 7 6 7 7 7 7 7 7 7 7 7 7 7 7 7 7 7 7 7 7 7 7 7 7 7 7 7 7 7 7 7 7 7 7 7 w `  .                      ",
"                  ..+.7 7 7 7 7 7 7 7 7 7 7 7 7 7 7 7 7 7 7 7 7 7 7 7 7 7 7 7 7 7 7 7 7 7 7 7 7 7 7 7 7 @.#.                    ",
"                $.%.L 7 7 7 7 7 7 7 7 7 7 7 7 7 7 7 7 7 7 7 7 7 7 7 7 7 7 7 7 7 7 7 7 7 7 7 7 7 7 7 7 7 ! &.*.                  ",
"                =.v 7 7 7 7 7 7 7 7 7 7 7 7 7 7 7 7 7 7 7 7 7 7 7 7 7 7 7 7 7 7 7 7 7 7 7 7 7 7 7 7 7 7 7 -.;.>.                ",
"            T ,.'.7 7 7 7 7 7 7 7 7 7 7 7 7 7 7 7 7 7 7 7 7 7 7 7 7 7 7 7 7 7 7 7 7 7 7 7 7 7 7 7 7 7 7 7 7 ).!.                ",
"            ~.m 7 7 7 7 7 {.].^./.(._.:.<.[.7 7 7 7 7 7 7 7 7 7 7 }.}.|.|.|.|._.1.2.3.4.5.7 7 7 7 7 7 7 7 7 7 6.7.              ",
"          8.9.0.7 7 7 7 7 a.b.|.|.|.|.|._.c.d.7 7 7 7 7 7 7 7 7 e.f.g.|.|.|.|.|.|.|.|.|.h.i.7 7 7 7 7 7 7 7 7 x j.k.            ",
"          l.m.v 7 7 7 n.o.p.(.|.|.|.|.|.|.|.q.r.7 7 7 7 7 7 7 7 s.t.|.|.|.|.|.|.|.|.|.|._.u.v.7 7 7 7 7 7 7 7 7 w.x.            ",
"          y.z.L 7 7 A.B.C.|.|.|.|.|.|.|.|.|.|.D.7 7 7 7 7 7 7 7 s.|.|.|.|.|.|.|.|.|.|.|.|.E.F.7 7 7 7 7 7 7 7 7 G.H.            ",
"          I.J.7 7 7 K.L.|.|.|.|.|.|.|.|.|.|.|.|.|.7 7 7 7 7 7 |.|.|.|.|.|.|.|.|.|.|.|.|.|.|.|.7 7 7 7 7 7 7 7 7 M.N.N           ",
"          O.P.7 7 7 a.Q.|.|.|.|.|.|.|.|.|.|.|.|.|.7 7 7 7 7 7 |.|.|.|.|.|.|.|.|.|.|.|.|.|.|.|.7 7 7 7 7 7 7 7 7 w R.x.          ",
"          S.y 7 7 7 T.U.|.|.|.|.|.|.|.|.|.|.|.|.|.7 7 7 7 7 7 |.|.|.|.|.|.|.|.|.|.|.|.|.|.|.|.7 7 7 7 7 7 7 7 7 7 V.W.          ",
"          X.Y.7 7 7 Z.|.|.|.|.|.|.|.|.|.|.|.|.|.|.7 7 7 7 7 7 |.|.|.|.|.|.|.|.|.|.|.|.|.|.|.|.7 7 7 7 7 7 7 7 7 7 5 `.          ",
"           +7 7 7 .+++@+#+#+#+$+%+|.|.|.|.|.|.|.|.7 7 7 7 7 7 &+*+#+#+#+#+=+-+|.|.|.|.|.|.|.|.7 7 7 7 7 7 7 7 7 7 Y.;+          ",
"          k 7 7 7 >+,+#+#+#+#+#+'+|.|.|.|.|.|.|.|.7 7 7 7 7 )+!+#+#+#+#+#+#+~+|.|.|.|.|.|.|.|.7 7 7 7 7 7 7 7 7 7 w {+]+        ",
"          P.7 7 7 >+^+#+#+#+#+#+!+|.|.|.|.|.|.|.|.7 7 7 7 7 7 #+#+#+#+#+#+#+#+|.|.|.|.|.|.|.|.7 7 7 7 7 7 7 7 7 7 7 /+(+        ",
"          _+w 7 7 :+<+#+#+#+#+#+#+|.|.|.|.|.|.|.|.7 7 7 7 7 7 #+#+#+#+#+#+#+#+|.|.|.|.|.|.|.|.7 7 7 7 7 7 7 7 7 7 7 [+}+        ",
"          7 7 7 7 |+1+#+#+#+#+#+#+|.|.|.|.|.|.|.|.7 7 7 7 7 7 #+#+#+#+#+#+#+#+|.|.|.|.|.|.|.|.7 7 7 7 7 7 7 7 7 7 7 7 2+        ",
"          7 7 7 7 3+4+#+#+#+#+#+5+|.|.|.|.|.|.|.|.7 7 7 7 7 7 #+#+#+#+#+#+#+!+|.|.|.|.|.|.|.|.7 7 7 7 7 7 7 7 7 7 7 7 6+        ",
"          7 7 7 7 7+8+#+#+#+#+#+9+|.|.|.|.|.|.|.|.7 7 7 7 7 7 0+a+#+#+#+#+5+b+|.|.|.|.|.|.|.|.7 7 7 7 7 7 7 7 7 7 7 7 c+        ",
"          7 7 7 7 d+e+&+f+f+f+g+h+|.|.|.|.|.|.|.|.7 7 7 7 7 7 i+j+k+l+l+f+m+n+|.|.|.|.|.|.|.|.7 7 7 7 7 7 7 7 7 7 7 7           ",
"          7 7 7 7 7 o+p+q+|.|.|.|.|.|.|.|.|.|.r+s+7 7 7 7 7 7 s+t+|.|.|.|.|.|.|.|.|.|.|.|.u+s+7 7 7 7 7 7 7 7 7 7 7 7           ",
"          7 7 7 7 7 D.|.|.|.|.|.|.|.|.|.|.|.|.v+w+7 7 7 7 7 7 s+t+|.|.|.|.|.|.|.|.|.|.|.x+y+z+7 7 7 7 7 7 7 7 7 7 7 7           ",
"          7 7 7 7 7 A+B+C+p._.|.|.|.|.|.|.D+E+F+G+7 7 7 7 7 7 H+I+J+K+|.|.|.|.|.|.|.|.L+M+N+7 7 7 7 7 7 7 7 7 7 7 7 7           ",
"          7 7 7 7 7 O+P+G+Q+R+_.|.|.(.S+T+U+V+W+7 7 7 7 7 7 7 7 7 X+Y+D+Z+|.|.|.|.|.`+ @.@7 7 7 7 7 7 7 7 7 7 7 7 7 7           ",
"          7 7 7 7 7 7 7 7 7 +@@@7 7 O+#@$@7 7 7 7 7 7 7 7 7 7 7 7 7 %@&@*@=@-@7 7 7 7 7 7 7 7 7 7 7 7 7 7 7 7 7 7 7 7           ",
"          7 7 7 7 7 7 7 7 7 7 7 7 7 7 7 7 7 7 7 7 7 7 7 7 7 7 7 7 7 7 7 7 7 7 7 7 7 7 7 7 7 7 7 7 7 7 7 7 7 7 7 7 7 7           ",
"          7 7 7 7 7 7 7 7 7 7 7 7 7 7 7 7 7 7 7 7 7 7 7 7 7 7 7 7 7 7 7 7 7 7 7 7 7 7 7 7 7 7 7 7 7 7 7 7 7 7 7 7 7 7           ",
"          7 7 7 7 7 7 7 7 7 7 7 7 7 7 7 7 7 7 7 7 7 7 7 7 7 7 7 7 7 7 7 7 7 7 7 7 7 7 7 7 7 7 7 7 7 7 7 7 7 7 7 7 7 7           ",
"          7 7 7 7 7 7 7 7 7 7 7 7 7 7 7 7 7 7 7 7 7 7 7 7 7 7 7 7 7 7 7 7 7 7 7 7 7 7 7 7 7 7 7 7 7 7 7 7 7 7 7 7 7 7           ",
"          7 7 7 7 7 7 7 7 7 7 7 7 7 7 7 7 7 7 7 7 7 7 7 7 7 7 7 7 7 7 7 7 7 7 7 7 7 7 7 7 7 7 7 7 7 7 7 7 7 7 7 7 7 7           ",
"          7 7 7 7 7 7 7 7 7 7 7 7 7 7 7 7 7 7 7 7 7 7 7 7 7 7 7 7 7 7 7 7 7 7 7 7 7 7 7 7 7 7 7 7 7 7 7 7 7 7 7 7 7 7           ",
"          7 7 7 7 7 7 7 7 7 7 7 7 7 7 7 7 7 7 7 7 7 7 7 7 7 7 7 7 7 7 7 7 7 7 7 7 7 7 7 7 7 7 7 7 7 7 7 7 7 7 7 7 7 7           ",
"          7 7 7 7 7 7 7 7 7 7 7 7 7 7 7 7 7 7 7 7 7 7 7 7 7 7 7 7 7 7 7 7 7 7 7 7 7 7 7 7 7 7 7 7 7 7 7 7 7 7 7 7 7 7           ",
"          7 7 7 7 7 7 7 7 7 7 7 7 7 7 7 7 7 7 7 7 7 7 7 7 7 7 7 7 7 7 7 7 7 7 7 7 7 7 7 7 7 7 7 7 7 7 7 7 7 7 7 7 7 7           ",
"          7 7 7 7 7 7 7 7 7 7 7 7 7 7 7 7 7 7 7 7 7 7 7 7 7 7 7 7 7 7 7 7 7 7 7 7 7 7 7 7 7 7 7 7 7 7 7 7 7 7 7 7 7 7           ",
"          7 7 7 7 7 7 7 7 7 7 7 7 7 7 7 7 7 7 7 7 7 7 7 7 7 7 7 7 7 7 7 7 7 7 7 7 7 7 7 7 7 7 7 7 7 7 7 7 7 7 7 7 7 7           ",
"          7 7 7 7 7 7 7 7 7 7 7 7 7 7 7 7 7 7 7 7 7 7 7 7 7 7 7 7 7 7 7 7 7 7 7 7 7 7 7 7 7 7 7 7 7 7 7 7 7 7 7 7 7 7           ",
"          7 7 7 7 7 7 7 7 7 7 7 7 7 7 7 7 7 7 7 7 7 7 7 7 7 7 7 7 7 7 7 7 7 7 7 7 7 7 7 7 7 7 7 7 7 7 7 7 7 7 7 7 7 7           ",
"          7 7 7 7 7 7 7 7 7 7 7 7 7 7 7 7 7 7 7 7 7 7 7 7 L 7 7 7 7 7 7 7 7 7 7 7 7 7 7 7 7 7 7 7 7 7 7 7 7 7 7 7 7 7           ",
"          7 7 7 7 7 7 7 7 L L 7 7 7 7 7 7 7 7 7 7 7 7 7 w ;@( >@6 7 7 7 7 7 7 7 7 7 7 7 7 7 7 7 7 7 7 7 7 7 7 7 7 7 7           ",
"          7 7 7 7 7 7 7 7 _+u ,@6 7 7 7 7 7 7 7 7 7 7 7 '@)@  !@M ~@7 7 7 7 7 7 7 7 7 7 7 7 7 7 {@]@w 7 7 7 7 7 7 7 7           ",
"          7 7 7 7 7 7 7 7 ^@  !@/@(@7 7 7 7 7 7 7 7 7 i _@:@    <@_@[@7 7 7 7 7 7 7 7 7 7 7 7 }@|@1@_ 7 7 7 7 7 7 7 7           ",
"          7 7 7 7 7 7 +.;       2@3@M 4@7 7 7 7 7 7 7 5@2 6@    7@8@9@7 7 7 7 7 7 7 7 7 7 +.> ;       - 0@7 7 7 7 7 L           ",
"          7 7 7 7 7 w a@            b@c@d@7 7 7 7 7 7 S.e@f@    g@h@i@7 7 7 7 7 7 7 7 7 4@j@.           j@k@7 7 7 7 L l@        ",
"          7 7 7 7 7 m@n@            o@p@q@7 7 7 7 7 7 r@            s@7 7 7 7 7 7 7 7 6 t@i@            u@t@v 7 7 7 L v@        ",
"          7 7 7 7 7 w@x@                  y@7 7 7 7 7               z@A@[+7 7 7 7 7 7 A@!@                B@C@7 7 7 L D@        ",
"          a@7 7 7 ! |@                    B@E@7 7 j P                 F@G@z.y 7 7 7 H@=.                    3@I@7 7 6 J@        ",
"          a@7 7 7 K@*.                    L@M@N@N@O@P@                    Q@;@7 7 7 R@-                     S@T@7 7 w U@        ",
"          V@7 7 E@W@X@                        i@Y@Z@                      `@_+7 7 M. #                      T !.-.7 w .#        ",
"          +#@###$#                            %#&#*#                      =#-#0.0.;#!@                        ># #7 L ,#        ",
"          %#'#)#                              !#7@                        X ~#{#]#- ^#                          /#( (#_#        ",
"          :#7@<#                              [#}#                          |#1#%#                              X 2#3#!@        "};
