/* XPM */
static char * wall_00_xpm[] = {
"64 64 6 1",
" 	c #000000",
".	c #000013",
"+	c #0500C1",
"@	c #0A00FF",
"#	c #0900F5",
"$	c #020075",
"   ...                                                          ",
"   ...                                                          ",
"   ...                                                          ",
"...   +++@@@@@@@@@@@@@@@@@@@@@@@@@@@@@@@@@@@@@@@@@@@@@@@@@@@@@@@",
"...   +++@@@@@@@@@@@@@@@@@@@@@@@@@@@@@@@@@@@@@@@@@@@@@@@@@@@@@@@",
"...   +++@@@@@@@@@@@@@@@@@@@@@@@@@@@@@@@@@@@@@@@@@@@@@@@@@@@@@@@",
"   +++###                                                       ",
"   +++###                                                       ",
"   +++###                                                       ",
"   @@@                                                          ",
"   @@@                                                          ",
"   @@@                                                          ",
"   @@@                                                          ",
"   @@@                                                          ",
"   @@@                                                          ",
"   @@@                                                          ",
"   @@@                                                          ",
"   @@@                                                          ",
"   @@@                                                          ",
"   @@@                                                          ",
"   @@@                                                          ",
"   @@@                                                          ",
"   @@@                                                          ",
"   @@@                                                          ",
"   @@@                                                          ",
"   @@@                                                          ",
"   @@@                                                          ",
"   @@@                                                          ",
"   @@@                                                          ",
"   @@@                                                          ",
"   @@@                                                          ",
"   @@@                                                          ",
"   @@@                                                          ",
"   @@@                                                          ",
"   @@@                                                          ",
"   @@@                                                          ",
"   @@@                                                          ",
"   @@@                                                          ",
"   @@@                                                          ",
"   @@@                                                          ",
"   @@@                                                          ",
"   @@@                                                          ",
"   @@@                                                          ",
"   @@@                                                          ",
"   @@@                                                          ",
"   @@@                                                          ",
"   @@@                                                          ",
"   @@@                                                          ",
"   @@@                                                          ",
"   @@@                                                          ",
"   @@@                                                          ",
"   @@@                                                          ",
"   @@@                                                          ",
"   @@@                                                          ",
"   @@@                                                          ",
"   @@@                                                          ",
"   @@@                                                          ",
"   @@@                                                          ",
"   @@@                                                    $$$@@@",
"   @@@                                                    $$$@@@",
"   @@@                                                    $$$@@@",
"   @@@                                                    @@@   ",
"   @@@                                                    @@@   ",
"   @@@                                                    @@@   "};
