/* XPM */
static char * wall_vertical_xpm[] = {
"64 64 3 1",
" 	c #000000",
".	c #0A00FE",
"+	c #0A00FF",
"   ...                                                    +++   ",
"   ...                                                    +++   ",
"   ...                                                    +++   ",
"   ...                                                    ...   ",
"   ...                                                    ...   ",
"   ...                                                    ...   ",
"   ...                                                    ...   ",
"   ...                                                    ...   ",
"   ...                                                    ...   ",
"   ...                                                    ...   ",
"   ...                                                    ...   ",
"   ...                                                    ...   ",
"   ...                                                    ...   ",
"   +++                                                    ...   ",
"   +++                                                    ...   ",
"   +++                                                    ...   ",
"   ...                                                    ...   ",
"   ...                                                    ...   ",
"   ...                                                    ...   ",
"   +++                                                    ...   ",
"   +++                                                    ...   ",
"   +++                                                    ...   ",
"   ...                                                    ...   ",
"   ...                                                    ...   ",
"   ...                                                    ...   ",
"   ...                                                    ...   ",
"   ...                                                    ...   ",
"   ...                                                    ...   ",
"   ...                                                    ...   ",
"   ...                                                    ...   ",
"   ...                                                    ...   ",
"   ...                                                    ...   ",
"   ...                                                    ...   ",
"   ...                                                    ...   ",
"   ...                                                    ...   ",
"   ...                                                    ...   ",
"   ...                                                    ...   ",
"   ...                                                    ...   ",
"   ...                                                    ...   ",
"   ...                                                    ...   ",
"   ...                                                    ...   ",
"   ...                                                    ...   ",
"   ...                                                    ...   ",
"   ...                                                    ...   ",
"   ...                                                    ...   ",
"   ...                                                    ...   ",
"   ...                                                    ...   ",
"   ...                                                    ...   ",
"   ...                                                    ...   ",
"   ...                                                    ...   ",
"   ...                                                    ...   ",
"   ...                                                    ...   ",
"   ...                                                    ...   ",
"   ...                                                    ...   ",
"   ...                                                    ...   ",
"   ...                                                    ...   ",
"   ...                                                    ...   ",
"   ...                                                    ...   ",
"   ...                                                    ...   ",
"   ...                                                    ...   ",
"   ...                                                    ...   ",
"   ...                                                    ...   ",
"   +++                                                    ...   ",
"   +++                                                    ...   "};
