/* XPM */
static char * wall_11_xpm[] = {
"64 64 6 1",
" 	c #000000",
".	c #0A00FF",
"+	c #020075",
"@	c #0900F5",
"#	c #0500C1",
"$	c #000013",
"   ...                                                    ...   ",
"   ...                                                    ...   ",
"   ...                                                    ...   ",
"...+++                                                    ...   ",
"...+++                                                    ...   ",
"...+++                                                    ...   ",
"                                                          ...   ",
"                                                          ...   ",
"                                                          ...   ",
"                                                          ...   ",
"                                                          ...   ",
"                                                          ...   ",
"                                                          ...   ",
"                                                          ...   ",
"                                                          ...   ",
"                                                          ...   ",
"                                                          ...   ",
"                                                          ...   ",
"                                                          ...   ",
"                                                          ...   ",
"                                                          ...   ",
"                                                          ...   ",
"                                                          ...   ",
"                                                          ...   ",
"                                                          ...   ",
"                                                          ...   ",
"                                                          ...   ",
"                                                          ...   ",
"                                                          ...   ",
"                                                          ...   ",
"                                                          ...   ",
"                                                          ...   ",
"                                                          ...   ",
"                                                          ...   ",
"                                                          ...   ",
"                                                          ...   ",
"                                                          ...   ",
"                                                          ...   ",
"                                                          ...   ",
"                                                          ...   ",
"                                                          ...   ",
"                                                          ...   ",
"                                                          ...   ",
"                                                          ...   ",
"                                                          ...   ",
"                                                          ...   ",
"                                                          ...   ",
"                                                          ...   ",
"                                                          ...   ",
"                                                          ...   ",
"                                                          ...   ",
"                                                          ...   ",
"                                                          ...   ",
"                                                          ...   ",
"                                                          ...   ",
"                                                       @@@###   ",
"                                                       @@@###   ",
"                                                       @@@###   ",
".......................................................###   $$$",
".......................................................###   $$$",
".......................................................###   $$$",
"                                                          $$$   ",
"                                                          $$$   ",
"                                                          $$$   "};
